<?xml version="1.0" encoding="UTF-8"?>
<svg width="330px" height="192px" viewBox="0 0 330 192" version="1.1" xmlns="http://www.w3.org/2000/svg" xmlns:xlink="http://www.w3.org/1999/xlink">
    <title>Slice 1</title>
    <defs>
        <polygon id="path-1" points="0 40.8839024 0 0.277682927 130 0.277682927 130 114.439024 0 114.439024 0 40.8839024 130 40.8839024 130 114.439024 0 114.439024"></polygon>
        <polygon id="path-3" points="62.4977027 0.279489796 0.00340540541 0.279489796 0.00340540541 82.9254694 62.4982703 82.9254694"></polygon>
        <path d="M6.35625,0.434 C6.391125,0.660333333 6.402375,0.891333333 6.38775,1.12525 C6.2431875,3.45275 3.596625,5.17066667 0.47025,4.97525 L0.47025,0.434 L6.35625,0.434 Z" id="path-5"></path>
        <path d="M0.1906875,4.9525 C0.2716875,4.96066667 0.3538125,4.96766667 0.435375,4.97291667 C3.5769375,5.1835 6.242625,3.46091667 6.38775,1.12525 C6.4085625,0.791583333 6.3765,0.463166667 6.29775,0.14525 L0.19125,0.14525 L0.19125,4.9525 L0.1906875,4.9525 Z" id="path-7"></path>
    </defs>
    <g id="Page-1" stroke="none" stroke-width="1" fill="none" fill-rule="evenodd">
        <rect id="Rectangle" x="0" y="0" width="330" height="192"></rect>
        <g id="hubspot-software-illustration-2" transform="translate(100.000000, 38.000000)">
            <path d="M69.1108668,39.9777685 C66.8499945,38.6740772 63.1495118,38.6740772 60.8886395,39.9777685 L1.68826363,74.1062614 C-0.572608664,75.4099527 -0.561304302,77.5223841 1.71369845,78.8018075 L60.8626395,112.040856 C63.1382074,113.319715 66.8612989,113.319715 69.1363016,112.040856 L128.286373,78.8012431 C130.561376,77.5223841 130.57268,75.4093883 128.311243,74.1062614 L69.1108668,39.9777685 Z" id="Path" fill-opacity="0.2" fill="#6976D4" fill-rule="nonzero"></path>
            <path d="M48.5,39 C47.6714,39 47,38.3628982 47,37.576627 L47,17.423373 C47,16.6376711 47.6714,16 48.5,16 C49.328,16 50,16.6376711 50,17.423373 L50,37.576627 C50,38.3628982 49.328,39 48.5,39" id="Path" fill="#33475C" fill-rule="nonzero"></path>
            <g id="Clipped" transform="translate(0.000000, 1.000000)">
                <mask id="mask-2" fill="white">
                    <use xlink:href="#path-1"></use>
                </mask>
                <g id="a"></g>
                <path d="M69.1108261,41.8555122 C66.8499565,40.5596585 63.1494783,40.5596585 60.8886087,41.8555122 L1.68830435,75.7788293 C-0.572565217,77.0746829 -0.56126087,79.1744146 1.71373913,80.4461463 L60.8626087,113.485366 C63.1381739,114.756537 66.8612609,114.756537 69.1362609,113.485366 L128.286261,80.4450244 C130.561261,79.1738537 130.572565,77.073561 128.31113,75.7782683 L69.1108261,41.8555122 Z" id="Path" fill="#6976D4" fill-rule="nonzero" mask="url(#mask-2)"></path>
            </g>
            <g id="Clipped" transform="translate(47.000000, 0.000000)">
                <mask id="mask-4" fill="white">
                    <use xlink:href="#path-3"></use>
                </mask>
                <g id="c"></g>
                <path d="M57.5587297,68.2039796 C56.7754865,68.2039796 56.136973,67.5721633 56.136973,66.792415 C56.136973,66.0132313 56.7692432,65.3808503 57.5530541,65.3808503 L57.5587297,65.3808503 C58.3425405,65.3808503 58.9776486,66.0132313 58.9776486,66.792415 C58.9776486,67.5721633 58.3425405,68.2039796 57.5587297,68.2039796 L57.5587297,68.2039796 Z M55.7884865,82.9254694 C55.1062703,82.9254694 54.3780811,82.7199456 53.6601081,82.3077687 L37.9645946,73.2923878 L32.1072973,77.6863061 C32.0607568,77.7207483 32.0125135,77.752932 31.962,77.7822925 C30.5657838,78.5840612 28.5588649,78.6416531 27.2948919,77.9155442 L10.8995676,68.4987143 C10.0936216,68.0357211 9.63105405,67.2960612 9.63105405,66.4671905 C9.63105405,65.5677415 10.1781892,64.7366122 11.1328378,64.1883605 C11.1765405,64.1629524 11.2219459,64.1398027 11.2690541,64.1194762 L17.3437297,61.4487959 L3.89237838,53.7224558 C1.71064865,52.4706803 0.00340540541,49.5272857 0.00340540541,47.0231701 L0.00340540541,37.1636735 C0.00340540541,36.3844898 0.637945946,35.7521088 1.42232432,35.7521088 C2.20556757,35.7521088 2.84124324,36.3844898 2.84124324,37.1636735 L2.84124324,47.0237347 C2.84124324,48.5346735 3.99454054,50.5227211 5.31016216,51.2781905 L21.1804865,60.3940748 C21.6436216,60.659449 21.9166216,61.161966 21.8876757,61.6927143 C21.8598649,62.2234626 21.5335135,62.692102 21.0448378,62.9072245 L12.999,66.4451701 L28.7126757,75.4712789 C29.0225676,75.6491361 29.8801622,75.6784966 30.4783784,75.3719048 L37.0054054,70.4765986 C37.4605946,70.1355646 38.0758378,70.0982993 38.5684865,70.3806122 L55.079027,79.8629388 C55.5234324,80.1187143 55.8395676,80.1345238 55.9201622,80.0662041 L55.9388919,80.0498299 L55.9706757,80.0035306 L55.9945135,79.9707823 L55.9956486,79.9690884 L55.9979189,79.9668299 L56.0149459,79.9205306 C56.0172162,79.9120612 56.031973,79.8753605 56.0348108,79.8674558 L56.0427568,79.8482585 C56.0541081,79.8205918 56.0654595,79.7934898 56.0785135,79.7669524 C56.0813514,79.7330748 56.0853243,79.698068 56.0915676,79.6636259 L56.1040541,79.5772381 C56.2368649,78.8093469 56.9667568,78.2910204 57.7414865,78.4225782 C57.9571622,78.4592789 58.152973,78.5422789 58.320973,78.6602857 L59.496973,77.9844286 C59.5718919,77.8754558 59.6592973,77.6383129 59.6592973,77.2317823 L59.6592973,36.1795306 C59.6592973,34.6685918 58.5054324,32.6799796 57.1903784,31.9250748 L7.42264865,3.3397619 C7.06508108,3.1342381 6.80854054,3.09245578 6.68310811,3.10318367 L5.59735135,3.72653061 C5.60927027,3.79993197 5.61494595,3.87333333 5.61494595,3.94786395 C5.61494595,4.13419048 5.57748649,4.32334014 5.49859459,4.50514966 C5.1887027,5.22109524 4.35267568,5.55083673 3.63413514,5.24255102 C3.59724324,5.2267415 3.55921622,5.21093197 3.52289189,5.19794558 L3.51324324,5.19455782 L3.46216216,5.17931293 L3.39405405,5.16011565 L3.35716216,5.15108163 L3.33275676,5.14656463 L3.27486486,5.13809524 C3.26351351,5.13696599 3.25045946,5.13527211 3.23854054,5.13301361 C3.20335135,5.13301361 3.192,5.13301361 3.1692973,5.13131973 L3.12956757,5.13753061 L3.10175676,5.14091837 L3.08813514,5.14487075 C2.98597297,5.17931293 2.84124324,5.4582381 2.84124324,5.97148299 L2.84124324,17.176483 C2.84124324,17.9562313 2.20613514,18.5880476 1.42232432,18.5880476 C0.639081081,18.5880476 0.00340540541,17.9562313 0.00340540541,17.176483 L0.00340540541,5.97148299 C0.00340540541,4.32672789 0.735567568,3.06535374 1.97286486,2.54872109 L5.42424324,0.566884354 C5.49632432,0.524537415 5.57181081,0.489530612 5.65013514,0.46129932 C6.61727027,0.11292517 7.75013514,0.268197279 8.84156757,0.896061224 L58.6098649,29.4802449 C60.7898919,30.7320204 62.4977027,33.675415 62.4977027,36.1795306 L62.4977027,77.2312177 C62.4977027,78.4762177 62.0703243,79.5252925 61.2944595,80.1847755 C61.2280541,80.2412381 61.1571081,80.2903605 61.0821892,80.3332721 L57.6467027,82.3066395 C57.1109189,82.7188163 56.4724054,82.9254694 55.7884865,82.9254694 L55.7884865,82.9254694 Z" id="Shape" fill="#33475C" fill-rule="nonzero" mask="url(#mask-4)"></path>
            </g>
            <path d="M27.8882685,77.2831041 C27.8922562,77.3109095 27.8956743,77.339827 27.897953,77.3681885 C27.9133343,77.5739481 28.1372178,77.9076124 28.7182896,78.2318228 L54.3857105,92.5493556 C55.9978998,93.4480246 58.8200856,93.4407952 60.4271478,92.5326724 L69.3334968,87.4999033 C69.9128595,87.1723563 70.1344643,86.8364676 70.1492759,86.6323763 L70.1504153,86.6156931 L70.1504153,86.594561 C70.1487063,86.5734289 70.1481366,86.5517408 70.1475669,86.5306087 L70.1122469,84.1243334 C70.1099681,84.0993086 69.9424828,83.566558 68.0750776,82.5244133 L48.8376145,71.7937712 C48.3989623,71.5490841 48.1255168,71.0953007 48.1203897,70.6009215 C48.1152626,70.1076545 48.3784539,69.6483101 48.811979,69.3941691 C49.2625945,69.1311305 50.0253936,68.5616768 50.0823614,67.7080525 L50.077804,67.6151826 C50.077804,67.586265 50.0789433,67.5567914 50.0806524,67.5278738 L50.0903369,67.4144279 C50.0914763,66.0781026 48.2064111,64.8685697 45.9755513,64.7929392 C45.9447886,64.791827 45.914026,64.7901586 45.8832634,64.7873781 L45.7448316,64.7840415 C45.7260322,64.7851537 45.7072328,64.7840415 45.6890031,64.7840415 C43.460422,64.7161964 41.4916142,65.8072785 41.4021747,67.1591748 C41.4055928,67.1725214 41.4061624,67.217566 41.4055928,67.2631668 C41.3902114,67.9922232 40.8017339,68.5867017 40.0554554,68.6256292 C38.6386658,68.6979231 37.3289756,69.0360362 36.3696375,69.5787967 L29.8747363,73.2502156 C28.1930463,74.2000465 27.897953,74.6866402 27.8495303,74.7950811 L27.8894078,77.2831041 L27.8882685,77.2831041 Z M57.3862056,96 C55.7985124,96 54.2119587,95.6552136 52.9723389,94.9634164 L27.3054877,80.6453275 C26.0294085,79.9335104 25.2472403,78.9258444 25.081464,77.7897177 C25.0575375,77.6940673 25.0450046,77.5950802 25.0432955,77.4949809 L25,74.7672757 C25.0227871,73.008309 26.7557482,71.7993322 28.4476925,70.8433842 L34.9425936,67.1730775 C36.0221338,66.5624719 37.3244181,66.1481721 38.7577285,65.9540908 C39.5285031,63.5911918 42.3353076,61.92009 45.7322987,62.00295 C45.7864181,62.0012817 45.8359801,62.0046183 45.8872511,62.0073988 L45.8741485,63.3982226 L45.944219,62.0096233 C46.0040352,62.0101794 46.0541669,62.0112916 46.1048682,62.0151843 L46.1168315,62.0157404 C49.946778,62.1625527 52.9404369,64.5360177 52.9404369,67.4333356 C52.9404369,67.5100784 52.9353098,67.586265 52.927904,67.6613395 C52.9301827,67.7458678 52.929613,67.8142689 52.9250556,67.8837823 C52.8680878,68.765212 52.5308383,69.6038215 51.9611601,70.3328779 L69.4884492,80.1103525 C71.1251347,81.0234803 72.9988063,82.3058632 72.9606379,84.132675 L72.9959579,86.4633197 C72.9999742,86.5367259 73.0005153,86.6095759 72.999376,86.6835381 L72.9999742,86.714124 C73.0005153,86.8031012 72.9925398,86.8920783 72.9771585,86.9777188 C72.836448,88.1388704 72.0554192,89.1743417 70.76168,89.9056225 L61.8553311,94.9389477 C60.6048874,95.6463159 58.9955465,96 57.3867753,96 L57.3862056,96 Z" id="Shape" fill="#33475C" fill-rule="nonzero"></path>
            <path d="M59.5528936,67.4836437 L75.7670756,76.6860773 C76.5865407,77.1512201 78.0323913,77.0927324 78.978705,76.5553076 L95.2164607,64.5189791 C96.1633357,63.9815543 96.2666108,63.1610711 95.4465845,62.6959283 L84.202514,56.3141471 C83.3830489,55.8484525 81.9371983,55.907492 80.9903233,56.4449168 L59.7835786,65.6605929 C58.8372649,66.1980177 58.7328673,67.0179491 59.5534549,67.4836437" id="Path" fill="#EBF0F7" fill-rule="nonzero"></path>
            <path d="M82.3734907,55.5618478 C81.7812313,55.5618478 81.15263,55.7032701 80.6728033,55.9776631 L59.1913329,65.4022465 C58.8108787,65.6219862 58.5667065,65.9251145 58.5667065,66.1983806 C58.5667065,66.4665759 58.7944112,66.653073 58.9852062,66.761816 L75.3884638,76.1599179 C76.1283622,76.5836213 77.4877764,76.5216434 78.3537358,76.0252568 L94.7524507,63.7536346 C95.1885535,63.5012155 95.4321578,63.1986507 95.4321578,62.9253846 C95.4321578,62.6566259 95.2050209,62.4701288 95.0142259,62.3608224 L83.6397788,55.8441289 C83.3087268,55.6548146 82.8527496,55.5624112 82.3734907,55.5624112 M76.64737,77 C76.068171,77 75.517364,76.8833689 75.1051106,76.6472895 L58.701853,67.2503145 C58.2492827,66.9911342 58,66.6175765 58,66.1983806 C58,65.7143896 58.3407053,65.2411039 58.9352361,64.9002255 L80.4167065,55.4762056 C81.4286013,54.8941769 83.0128811,54.8355796 83.9231321,55.3561939 L95.2992827,61.8728873 C95.7512851,62.1320676 96,62.5056252 96,62.9248212 C96,63.4093756 95.6592947,63.8826613 95.0658996,64.2229762 L78.6671847,76.4945985 C78.0834429,76.830406 77.3458159,77 76.64737,77" id="Shape" fill="#33475C" fill-rule="nonzero"></path>
            <path d="M59.5528936,67.4836437 L75.7670756,76.6860773 C76.5865407,77.1512201 78.0323913,77.0927324 78.978705,76.5553076 L95.2164607,64.5189791 C96.1633357,63.9815543 96.2666108,63.1610711 95.4465845,62.6959283 L84.202514,56.3141471 C83.3830489,55.8484525 81.9371983,55.907492 80.9903233,56.4449168 L59.7835786,65.6605929 C58.8372649,66.1980177 58.7328673,67.0179491 59.5534549,67.4836437" id="Path" fill="#EBF0F7" fill-rule="nonzero"></path>
            <path d="M82.3734907,55.5618478 C81.7812313,55.5618478 81.15263,55.7032701 80.6728033,55.9776631 L59.1913329,65.4022465 C58.8108787,65.6219862 58.5667065,65.9251145 58.5667065,66.1983806 C58.5667065,66.4665759 58.7944112,66.653073 58.9852062,66.761816 L75.3884638,76.1599179 C76.1283622,76.5836213 77.4877764,76.5216434 78.3537358,76.0252568 L94.7524507,63.7536346 C95.1885535,63.5012155 95.4321578,63.1986507 95.4321578,62.9253846 C95.4321578,62.6566259 95.2050209,62.4701288 95.0142259,62.3608224 L83.6397788,55.8441289 C83.3087268,55.6548146 82.8527496,55.5624112 82.3734907,55.5624112 M76.64737,77 C76.068171,77 75.517364,76.8833689 75.1051106,76.6472895 L58.701853,67.2503145 C58.2492827,66.9911342 58,66.6175765 58,66.1983806 C58,65.7143896 58.3407053,65.2411039 58.9352361,64.9002255 L80.4167065,55.4762056 C81.4286013,54.8941769 83.0128811,54.8355796 83.9231321,55.3561939 L95.2992827,61.8728873 C95.7512851,62.1320676 96,62.5056252 96,62.9248212 C96,63.4093756 95.6592947,63.8826613 95.0658996,64.2229762 L78.6671847,76.4945985 C78.0834429,76.830406 77.3458159,77 76.64737,77" id="Shape" fill="#33475C" fill-rule="nonzero"></path>
            <path d="M108,36.2944873 C108,34.2974573 106.581384,31.8467865 104.84752,30.8485522 L94.0823644,24.6502921 L80.1664175,16.6369074 L66.2487819,8.62296127 L55.4841891,2.42470113 C54.7354751,1.99351781 54.0441813,1.90256508 53.5015044,2.09794502 L50,4.11462531 C50.5426769,3.9181225 51.2328448,4.01019811 51.9821217,4.44194286 L62.7461516,10.640203 L76.6637872,18.6535877 L90.5808599,26.6669724 L101.345453,32.8652325 C103.079317,33.8634668 104.497933,36.3141376 104.497933,38.3111676 L104.497933,79.1309775 C104.497933,79.9899755 104.234475,80.628329 103.797632,81 L107.299699,78.9838811 C107.73598,78.6122101 108,77.9732953 108,77.1142972 L108,36.2944873 L108,36.2944873 Z" id="Path" fill="#7C98B6" fill-rule="nonzero"></path>
            <path d="M51.4050575,3.08098452 C51.7357011,3.15268689 52.0788219,3.28818742 52.4225097,3.48522777 L102.153465,32.0685001 C103.983064,33.1197584 105.471244,35.6857997 105.471244,37.7894454 L105.471244,78.838202 C105.471244,79.234541 105.420202,79.5936174 105.319817,79.9103499 L107.869119,78.4452504 C108.217344,78.1431971 108.432858,77.5515115 108.432858,76.8102107 L108.432858,35.7614541 C108.432858,33.8379112 107.071718,31.4909291 105.39865,30.5294399 L55.6665603,1.94673217 C55.0177502,1.57354112 54.3938943,1.46401153 53.9072868,1.63846846 L51.4050575,3.08098452 Z M104.482716,81 C104.393675,81 104.305768,80.9582207 104.251322,80.8803079 C104.166251,80.7611803 104.186668,80.5974505 104.298962,80.5020356 C104.689156,80.1706238 104.904103,79.5800674 104.904103,78.838202 L104.904103,37.7894454 C104.904103,35.8659025 103.54353,33.5189204 101.869894,32.5574312 L52.1389389,3.97472344 C51.4889945,3.60096781 50.8640043,3.4920028 50.3796653,3.66645973 C50.2435513,3.71614326 50.0887216,3.65234509 50.026336,3.51966749 C49.9645176,3.38755447 50.0149932,3.22947052 50.1414658,3.15663899 L53.6696544,1.12864771 C54.360433,0.876277975 55.1532971,0.999985404 55.9506983,1.45780108 L105.681654,30.0399442 C107.511253,31.0917671 109,33.658373 109,35.7614541 L109,76.8102107 C109,77.7191934 108.714161,78.4633172 108.194659,78.904823 L104.624502,80.9621728 C104.580265,80.9875791 104.530923,81 104.482716,81 L104.482716,81 Z" id="Shape" fill="#33475C" fill-rule="nonzero"></path>
            <path d="M49,34.9197747 L49,47.4193012 C49,49.4329251 50.427069,51.9033931 52.1712645,52.9104881 L63,59.1602513 L77,67.2402215 L91,75.3201917 L101.828736,81.5699549 C103.572931,82.577616 105,81.7528058 105,79.739748 L105,38.5801886 C105,36.5671308 103.572931,34.0966628 101.828736,33.0895678 L91,26.8398045 L77,18.7592683 L63,10.6792981 L52.1718308,4.42953486 C50.4276353,3.42300596 49,4.24668399 49,6.26030789 L49,34.9197747" id="Path" fill="#7C98B6" fill-rule="nonzero"></path>
            <path d="M51.0261295,4.56257369 C50.7749657,4.56257369 50.5439847,4.62045928 50.3427173,4.73735444 C49.8381471,5.02903035 49.5606335,5.66408581 49.5606335,6.52674964 L49.5606335,47.3872295 C49.5606335,49.3013878 50.906154,51.6381671 52.5600228,52.5952462 L101.720855,81.0468548 C102.464815,81.4784677 103.153273,81.5537752 103.657843,81.2632233 C104.161853,80.9709854 104.439366,80.3353679 104.439366,79.4732661 L104.439366,38.6122242 C104.439366,36.6980659 103.094407,34.3618486 101.440538,33.4047695 L52.2797061,4.9525989 C51.8323205,4.69351875 51.4056784,4.56257369 51.0261295,4.56257369 M102.976113,82 C102.498453,82 101.975943,81.8437651 101.440538,81.5335433 L52.2797061,53.0819348 C50.471663,52.0349363 49,49.4806645 49,47.3872295 L49,6.52674964 C49,5.45502331 49.3773064,4.64687309 50.0624005,4.25010392 C50.746934,3.85389676 51.6349775,3.93032821 52.5600228,4.46591038 L101.720855,32.9180809 C103.528898,33.9645175 105,36.5187892 105,38.6122242 L105,79.4732661 C105,80.5444304 104.623254,81.3531426 103.93816,81.7493498 C103.648873,81.9168246 103.324266,82 102.976113,82" id="Shape" fill="#33475C" fill-rule="nonzero"></path>
            <path d="M49,42 L49,46.7359053 C49,48.7311221 50.427069,51.1790068 52.1712645,52.1768957 L63,58.369528 L77,66.3756369 L91,74.3817457 L101.828736,80.574378 C103.572931,81.5717059 105,80.7555574 105,78.7609015 L105,74.0249962 L49,42 Z" id="Path" fill="#EBF0F7" fill-rule="nonzero"></path>
            <path d="M49.5600673,42.7741277 L49.5600673,47.0712453 C49.5600673,49.0028782 50.9055742,51.3604231 52.5594266,52.3262395 L101.719766,81.0387206 C102.463719,81.4737066 103.15217,81.5491344 103.656736,81.25593 C104.161301,80.9610242 104.438811,80.3201713 104.438811,79.4496321 L104.438811,74.8252825 L49.5600673,42.7741277 Z M102.975012,81.9994329 C102.497357,81.9994329 101.974852,81.8417717 101.438892,81.529285 L52.2802339,52.8173711 C50.4716482,51.7619486 49,49.1837915 49,47.0712453 L49,42.2829961 C49,42.1814805 49.0538203,42.0879046 49.140157,42.0374303 C49.2264937,41.9875232 49.3341342,41.9875232 49.4204709,42.0374303 L104.859843,74.4158172 C104.94618,74.4668585 105,74.5610015 105,74.6619501 L105,79.4496321 C105,80.5311423 104.622697,81.3466703 103.93761,81.7476287 C103.648887,81.9160653 103.323723,82 102.975573,82 L102.975012,81.9994329 Z" id="Shape" fill="#33475C" fill-rule="nonzero"></path>
            <path d="M51.0261295,4.56257369 C50.7749657,4.56257369 50.5439847,4.62045928 50.3427173,4.73735444 C49.8381471,5.02903035 49.5606335,5.66408581 49.5606335,6.52674964 L49.5606335,47.3872295 C49.5606335,49.3013878 50.906154,51.6381671 52.5600228,52.5952462 L101.720855,81.0468548 C102.464815,81.4784677 103.153273,81.5537752 103.657843,81.2632233 C104.161853,80.9709854 104.439366,80.3353679 104.439366,79.4732661 L104.439366,38.6122242 C104.439366,36.6980659 103.094407,34.3618486 101.440538,33.4047695 L52.2797061,4.9525989 C51.8323205,4.69351875 51.4056784,4.56257369 51.0261295,4.56257369 M102.976113,82 C102.498453,82 101.975943,81.8437651 101.440538,81.5335433 L52.2797061,53.0819348 C50.471663,52.0349363 49,49.4806645 49,47.3872295 L49,6.52674964 C49,5.45502331 49.3773064,4.64687309 50.0624005,4.25010392 C50.746934,3.85389676 51.6349775,3.93032821 52.5600228,4.46591038 L101.720855,32.9180809 C103.528898,33.9645175 105,36.5187892 105,38.6122242 L105,79.4732661 C105,80.5444304 104.623254,81.3531426 103.93816,81.7493498 C103.648873,81.9168246 103.324266,82 102.976113,82" id="Shape" fill="#33475C" fill-rule="nonzero"></path>
            <path d="M49.5600673,42.7741277 L49.5600673,47.0712453 C49.5600673,49.0028782 50.9055742,51.3604231 52.5594266,52.3262395 L101.719766,81.0387206 C102.463719,81.4737066 103.15217,81.5491344 103.656736,81.25593 C104.161301,80.9610242 104.438811,80.3201713 104.438811,79.4496321 L104.438811,74.8252825 L49.5600673,42.7741277 Z M102.975012,81.9994329 C102.497357,81.9994329 101.974852,81.8417717 101.438892,81.529285 L52.2802339,52.8173711 C50.4716482,51.7619486 49,49.1837915 49,47.0712453 L49,42.2829961 C49,42.1814805 49.0538203,42.0879046 49.140157,42.0374303 C49.2264937,41.9875232 49.3341342,41.9875232 49.4204709,42.0374303 L104.859843,74.4158172 C104.94618,74.4668585 105,74.5610015 105,74.6619501 L105,79.4496321 C105,80.5311423 104.622697,81.3466703 103.93761,81.7476287 C103.648887,81.9160653 103.323723,82 102.975573,82 L102.975012,81.9994329 Z" id="Shape" fill="#33475C" fill-rule="nonzero"></path>
            <polygon id="Path" fill="#E6EFF7" fill-rule="nonzero" points="76.2279597 14.0488627 65.5085313 8 60 8.8862679 73.1303805 62.0803145 83 68 69.9328237 15.0626229"></polygon>
            <polygon id="Path" fill="#E6EFF7" fill-rule="nonzero" points="82.3453412 17.7279662 79.2856483 16 73 17.0130626 85.8218451 69 88 68.485563 75.7427549 18.7918513"></polygon>
            <polygon id="Path" fill="#E6EFF7" fill-rule="nonzero" points="74.5020747 13.2017899 68.8135675 10 63 10.9331027 75.576667 61.7553088 81 65 68.422175 14.177794"></polygon>
            <path d="M51.4050575,3.08098452 C51.7357011,3.15268689 52.0788219,3.28818742 52.4225097,3.48522777 L102.153465,32.0685001 C103.983064,33.1197584 105.471244,35.6857997 105.471244,37.7894454 L105.471244,78.838202 C105.471244,79.234541 105.420202,79.5936174 105.319817,79.9103499 L107.869119,78.4452504 C108.217344,78.1431971 108.432858,77.5515115 108.432858,76.8102107 L108.432858,35.7614541 C108.432858,33.8379112 107.071718,31.4909291 105.39865,30.5294399 L55.6665603,1.94673217 C55.0177502,1.57354112 54.3938943,1.46401153 53.9072868,1.63846846 L51.4050575,3.08098452 Z M104.482716,81 C104.393675,81 104.305768,80.9582207 104.251322,80.8803079 C104.166251,80.7611803 104.186668,80.5974505 104.298962,80.5020356 C104.689156,80.1706238 104.904103,79.5800674 104.904103,78.838202 L104.904103,37.7894454 C104.904103,35.8659025 103.54353,33.5189204 101.869894,32.5574312 L52.1389389,3.97472344 C51.4889945,3.60096781 50.8640043,3.4920028 50.3796653,3.66645973 C50.2435513,3.71614326 50.0887216,3.65234509 50.026336,3.51966749 C49.9645176,3.38755447 50.0149932,3.22947052 50.1414658,3.15663899 L53.6696544,1.12864771 C54.360433,0.876277975 55.1532971,0.999985404 55.9506983,1.45780108 L105.681654,30.0399442 C107.511253,31.0917671 109,33.658373 109,35.7614541 L109,76.8102107 C109,77.7191934 108.714161,78.4633172 108.194659,78.904823 L104.624502,80.9621728 C104.580265,80.9875791 104.530923,81 104.482716,81 L104.482716,81 Z" id="Shape" fill="#33475C" fill-rule="nonzero"></path>
            <path d="M108,76.9699754 L108,72 L104.666042,74.0918856 L104.666042,79.061861 C104.666042,79.9528925 104.415807,80.6144687 104,81 L107.333423,78.9092792 C107.748694,78.5231655 108,77.8610069 108,76.9699754" id="Path" fill="#EBF0F7" fill-rule="nonzero"></path>
            <path d="M105.325459,74.3955693 L105.325459,78.906099 C105.325459,79.2895433 105.271717,79.6374328 105.167776,79.9453916 L107.822399,78.5253897 C108.18442,78.2321998 108.409428,77.6594949 108.409428,76.9412891 L108.409428,72.7469231 L105.325459,74.3955693 L105.325459,74.3955693 Z M104.296092,81 C104.203372,81 104.111243,80.9595223 104.054548,80.8851308 C103.965962,80.7691677 103.987222,80.6105388 104.104156,80.5186434 C104.51106,80.1970098 104.734296,79.6243049 104.734296,78.906099 L104.734296,74.2374875 C104.734296,74.1401222 104.791582,74.0498678 104.881939,74.0006382 L108.557071,72.0369222 C108.648019,71.9876926 108.760818,71.9876926 108.852357,72.0369222 C108.943305,72.0850579 109,72.1753122 109,72.2732245 L109,76.9412891 C109,77.8219528 108.701761,78.5428936 108.161387,78.9706445 L104.443144,80.9633513 C104.39767,80.9885131 104.3457,81 104.295501,81 L104.296092,81 Z" id="Shape" fill="#33475C" fill-rule="nonzero"></path>
            <path d="M54.2546868,9.17144304 C53.5651692,8.7696539 53,9.09844191 53,9.903152 L53,47.5140112 C53,48.3192872 53.5651692,49.3079149 54.2546868,49.709704 L100.745313,76.8282076 C101.435951,77.2305627 102,76.9017747 102,76.0964987 L102,38.4856394 C102,37.6803634 101.435951,36.6923017 100.745313,36.2899466 L54.2546868,9.17200894 L54.2546868,9.17144304 Z" id="Path" fill="#FFFFFF" fill-rule="nonzero"></path>
            <path d="M52.9860986,9.56237043 C52.9143309,9.56237043 52.8504747,9.57752306 52.79566,9.60895074 C52.6487342,9.69257082 52.5656646,9.900218 52.5656646,10.1780162 L52.5656646,47.4770612 C52.5656646,48.1757659 53.0799051,49.0619142 53.6902125,49.410986 L100.593467,76.3046626 C100.837025,76.4444035 101.059675,76.47527 101.204905,76.3910887 C101.351831,76.3069074 101.436031,76.0998214 101.436031,75.8220232 L101.436031,38.5229782 C101.436031,37.8237123 100.921225,36.9381252 100.311483,36.5884922 L53.4070976,9.69481566 C53.2545208,9.60726712 53.1087251,9.56237043 52.9860986,9.56237043 M101.015032,77 C100.793513,77 100.55391,76.9298489 100.310918,76.7906692 L53.4070976,49.8975538 C52.6176537,49.4446585 52,48.3817294 52,47.4770612 L52,10.1780162 C52,9.68695874 52.181962,9.31263261 52.5125452,9.1223829 C52.8448237,8.93381682 53.2629973,8.96356087 53.6890823,9.20880902 L100.592902,36.1024856 C101.382346,36.5548197 102,37.61831 102,38.5229782 L102,75.8220232 C102,76.3125195 101.818603,76.6868456 101.48802,76.8770953 C101.344485,76.9590318 101.185127,77 101.015032,77" id="Shape" fill="#33475C" fill-rule="nonzero"></path>
            <path d="M100.745873,36.3194784 L54.2546868,9.1722265 C53.5651692,8.76887 53,9.09857995 53,9.90472643 L53,12.3871817 L102,41 L102,38.5175447 C102,37.7113982 101.435951,36.7222684 100.745313,36.3194784" id="Path" fill="#CBD6E3" fill-rule="nonzero"></path>
            <path d="M52.5645344,12.4612457 L101.434901,40.3733126 L101.434901,38.4077843 C101.434901,37.7112405 100.92066,36.8285416 100.310353,36.4808287 L53.4070976,9.69239994 C53.16467,9.553762 52.9420208,9.52189763 52.7950949,9.60631025 C52.6481691,9.69016385 52.5645344,9.89700272 52.5645344,10.1726015 L52.5645344,12.4612457 Z M101.71745,41.1369394 C101.669417,41.1369394 101.620253,41.1240818 101.576175,41.0994848 L52.1412749,12.86542 C52.0536844,12.8151079 52,12.7228689 52,12.6233626 L52,10.1731606 C52,9.68457361 52.1813969,9.31226364 52.5125452,9.12219549 C52.8448237,8.93324539 53.2618671,8.96455073 53.6890823,9.20828518 L100.592902,35.997273 C101.382346,36.4478463 102,37.5066377 102,38.4083434 L102,40.8579864 C102,40.9586107 101.946316,41.0502907 101.858725,41.1000438 C101.815212,41.1246409 101.766049,41.1374984 101.71745,41.1374984 L101.71745,41.1369394 Z M92.8476492,67.3495735 L99.2948689,71" id="Shape" fill="#33475C" fill-rule="nonzero"></path>
            <path d="M99.7179385,71 C99.6699906,71 99.6220427,70.9888454 99.5780434,70.9649425 L93.1417441,67.496379 C93.0063618,67.4236082 92.9601062,67.2610691 93.0373869,67.1335875 C93.1146676,67.0055746 93.2878441,66.9625496 93.4220982,67.0353204 L99.8578335,70.5038839 C99.9932158,70.5766547 100.040035,70.7391938 99.9627548,70.8666754 C99.9108582,70.9516632 99.8155265,70.9994688 99.7179385,70.9994688" id="Path" fill="#EBF0F7" fill-rule="nonzero"></path>
            <line x1="95" y1="70" x2="100" y2="73" id="Path" fill="#33475C" fill-rule="nonzero"></line>
            <path d="M99.7305517,73 C99.6847479,73 99.6389442,72.9885012 99.5969125,72.9649809 L95.1361649,70.4885544 C95.0062978,70.4169482 94.9615718,70.2570101 95.0359355,70.1315685 C95.1097604,70.0061269 95.2746539,69.962745 95.4034433,70.0348739 L99.8641909,72.5113004 C99.9935192,72.5829066 100.038245,72.7428447 99.9644203,72.8682863 C99.9148445,72.9524367 99.8237758,72.9994773 99.7305517,72.9994773" id="Path" fill="#EBF0F7" fill-rule="nonzero"></path>
            <path d="M49,42 L49,46.7359053 C49,48.7311221 50.427069,51.1790068 52.1712645,52.1768957 L63,58.369528 L77,66.3756369 L91,74.3817457 L101.828736,80.574378 C103.572931,81.5717059 105,80.7555574 105,78.7609015 L105,74.0249962 L49,42 Z" id="Path" fill="#EBF0F7" fill-rule="nonzero"></path>
            <path d="M49.5600673,42.7741277 L49.5600673,47.0712453 C49.5600673,49.0028782 50.9055742,51.3604231 52.5594266,52.3262395 L101.719766,81.0387206 C102.463719,81.4737066 103.15217,81.5491344 103.656736,81.25593 C104.161301,80.9610242 104.438811,80.3201713 104.438811,79.4496321 L104.438811,74.8252825 L49.5600673,42.7741277 Z M102.975012,81.9994329 C102.497357,81.9994329 101.974852,81.8417717 101.438892,81.529285 L52.2802339,52.8173711 C50.4716482,51.7619486 49,49.1837915 49,47.0712453 L49,42.2829961 C49,42.1814805 49.0538203,42.0879046 49.140157,42.0374303 C49.2264937,41.9875232 49.3341342,41.9875232 49.4204709,42.0374303 L104.859843,74.4158172 C104.94618,74.4668585 105,74.5610015 105,74.6619501 L105,79.4496321 C105,80.5311423 104.622697,81.3466703 103.93761,81.7476287 C103.648887,81.9160653 103.323723,82 102.975573,82 L102.975012,81.9994329 Z" id="Shape" fill="#33475C" fill-rule="nonzero"></path>
            <path d="M71.9990593,86.8337008 C72.0013303,86.7776264 71.9990593,86.7221242 71.9967883,86.666622 L71.9615871,84.1901932 L69.9023167,84.2863207 L44.8833462,69.8786321 C42.8348633,68.6987809 39.4884781,68.7085081 37.4468084,69.8998031 L29.2125659,74.704464 L27,74.561417 L27.0431499,77.3679981 L27.0539373,77.3679981 C27.1095779,78.104976 27.6148855,78.8327989 28.5823508,79.3895376 L54.1639728,94.1210845 C56.2124557,95.3009358 59.5594087,95.2917808 61.6010784,94.1004858 L70.4768912,88.9221863 C71.4420854,88.3585813 71.9434187,87.6278975 71.9945172,86.8897752 L72,86.8897752 L71.9990593,86.8337008 L71.9990593,86.8337008 Z" id="Path" fill="#CBD6E3" fill-rule="nonzero"></path>
            <path d="M27.6022334,77.3881671 C27.6078402,77.4066452 27.611765,77.4256832 27.6134471,77.4452811 C27.6627873,78.1026522 28.149462,78.7264267 28.9820794,79.2018169 L54.2448674,93.6186249 C56.1960515,94.7317881 59.3644829,94.7228291 61.3094995,93.5990269 L70.0746895,88.5309985 C70.9056248,88.0505688 71.3883747,87.4234346 71.4343508,86.7655036 L71.4382756,86.7341469 L71.4382756,86.7190285 C71.4405184,86.6725534 71.4388363,86.6266382 71.4365936,86.5801631 L71.4051952,84.435588 L69.6614646,84.5167795 C69.6110029,84.5195792 69.5549344,84.5067005 69.5083976,84.4803833 L44.8018091,70.381062 C42.850625,69.2678987 39.6816329,69.2768578 37.737177,70.4006599 L29.6055612,75.1024868 C29.5573423,75.1304839 29.5046379,75.1416827 29.4468873,75.1394429 L27.5657888,75.0184956 L27.6022334,77.3881671 Z M57.7541954,95 C56.3827596,95 55.0124453,94.7015513 53.9662069,94.104094 L28.7039796,79.6878459 C27.7323123,79.133504 27.1520032,78.380383 27.0611722,77.5600691 C27.0499585,77.5315121 27.0432303,77.5018352 27.0426696,77.4704785 L27.000028,74.7239665 C26.9989362,74.6455747 27.0297739,74.5711025 27.0869638,74.5167882 C27.143593,74.4630339 27.2226495,74.4372766 27.298342,74.4400763 L29.3981077,74.5755821 L37.4557131,69.9163107 C39.5549181,68.702918 42.9750971,68.693399 45.0799089,69.895033 L69.7164117,83.9540385 L71.6681565,83.863328 C71.7410456,83.8594084 71.8178594,83.8874055 71.8733673,83.93948 C71.9294358,83.9909946 71.9602735,84.0626671 71.9613948,84.139379 L71.996718,86.5622449 C71.9995214,86.6126396 72.0012035,86.6731133 71.9989607,86.733587 L71.9995214,86.7823019 C71.9995214,86.8086191 71.9961573,86.8349363 71.9888684,86.8601337 C71.9086904,87.6877269 71.3311848,88.4514868 70.3561534,89.0153477 L61.5904027,94.0828162 C60.534072,94.6931522 59.1441337,94.9994401 57.7541954,95 L57.7541954,95 Z" id="Shape" fill="#33475C" fill-rule="nonzero"></path>
            <path d="M36.3886567,68.1824321 C39.0571473,66.6168094 43.4310053,66.6043117 46.107905,68.1545962 L68.9868486,81.4027407 C71.664309,82.9524572 71.6721575,85.5019907 69.0036668,87.0676134 L62.6105014,90.8174955 C59.9425714,92.3831182 55.5692741,92.3956159 52.8912531,90.8458994 L30.0128701,77.5971869 C27.3354098,76.0469024 27.3281219,73.4979369 29.9966125,71.9323142 L36.3886567,68.1830001 L36.3886567,68.1824321 Z" id="Path" fill="#E4EBEF" fill-rule="nonzero"></path>
            <path d="M40.6957177,67.546882 C38.9578491,67.546882 37.2188481,67.9229641 35.8983171,68.6729064 L29.4417589,72.3398464 C28.2288184,73.0286823 27.5628902,73.928613 27.5657126,74.8740958 C27.5685529,75.8195786 28.2401437,76.7161763 29.4559155,77.3977905 L52.5663396,90.352349 C55.1983412,91.8283465 59.4764764,91.8166808 62.1005503,90.3262399 L68.5576748,86.6598554 C69.7700491,85.9710196 70.4359772,85.0710888 70.4331549,84.1250505 C70.4303146,83.1790122 69.75929,82.2829701 68.5429519,81.6013559 L45.4336604,68.6467973 C44.1255873,67.9135204 42.4109356,67.546882 40.6957177,67.546882 L40.6957177,67.546882 Z M57.303716,92 C55.4865703,92 53.6716897,91.6122521 52.2854719,90.8356452 L29.1761804,77.8810866 C27.775806,77.096147 27.00342,76.0290069 27.0000112,74.8763179 C26.9966248,73.7230733 27.7633482,72.6520446 29.1580599,71.8598834 L35.6146181,68.1923878 C38.3949813,66.6136205 42.9251046,66.6008437 45.7145281,68.1646122 L68.8243859,81.1197263 C70.224194,81.9041103 70.99658,82.9706949 70.9999888,84.1239395 C71.0033752,85.2766286 70.2372181,86.3482128 68.8425063,87.140374 L62.3853818,90.807314 C60.9867063,91.6022528 59.1440786,92 57.303716,92 L57.303716,92 Z" id="Shape" fill="#33475C" fill-rule="nonzero"></path>
            <polygon id="Path" fill="#FFFFFF" fill-rule="nonzero" points="29 77.2775523 45.3221043 68 68 80.7224477 51.6784642 90"></polygon>
            <path d="M29.8421739,76.7421483 L51.6311119,89.3876702 L67.1578175,80.2579232 L45.3688795,67.6129704 L29.8421739,76.7421483 Z M51.6322326,90 C51.5840443,90 51.5369767,89.9874802 51.4932711,89.9624407 L29.1417631,76.9908361 C29.0543519,76.940188 29.0005603,76.8462899 29,76.7444246 C29,76.6425593 29.0532312,76.5486611 29.1400822,76.497444 L45.2271163,67.0381998 C45.3139673,66.9875517 45.4198694,66.9869826 45.5072806,67.0381998 L67.8587886,80.0092353 C67.9456395,80.0604525 67.9994311,80.1537816 68,80.2556469 C68.0005517,80.3580812 67.9467602,80.4519794 67.8604696,80.5026275 L51.7734354,89.9618717 C51.7291694,89.9874802 51.6809812,90 51.6322326,90 L51.6322326,90 Z M33.0999244,72.1513816 C32.9060507,72.1513816 32.7183406,72.0495164 32.6146798,71.8674108 C32.4589085,71.5953907 32.5508024,71.2471139 32.8186394,71.0900478 L36.7829643,68.759097 C37.050241,68.6008929 37.3931621,68.694222 37.5483732,68.9662421 C37.7041445,69.2382622 37.6122506,69.5865391 37.3444135,69.7436051 L33.3800887,72.0745559 C33.2921171,72.1269112 33.1951802,72.1513816 33.0999244,72.1513816" id="Shape" fill="#33475C" fill-rule="nonzero"></path>
            <path d="M52.3483592,78.1511874 C52.4187115,78.5384213 52.2654236,78.9296651 51.9296773,79.2223818 L51.8741962,79.2682083 C51.6797265,79.428601 51.4366393,79.5500412 51.1666695,79.6210723 C50.8578058,79.7058513 50.5249194,79.7276189 50.2011844,79.6829381 C49.8843131,79.656015 49.5880328,79.5511869 49.3535251,79.3862115 L49.2837448,79.3346567 C49.0561008,79.1736911 48.8862258,78.9703361 48.7889909,78.7446406 C48.6803166,78.4983232 48.6551499,78.2348208 48.7186386,77.9804837 C48.7729757,77.7295837 48.9251197,77.4964414 49.1539077,77.3125626 L49.1750705,77.2948048 C49.3815517,77.1241011 49.6383661,76.9946412 49.9232071,76.9167362 C50.2206314,76.839404 50.5380747,76.8216462 50.8469384,76.8651814 C51.1546582,76.9098622 51.4446469,77.0106805 51.6934538,77.158471 C51.7437871,77.1899767 51.7878288,77.2191911 51.8341584,77.2529881 C52.1493137,77.4901402 52.33406,77.8120714 52.3489312,78.1511874 M51.4251999,75.6708283 C50.8320672,75.5642817 50.2137678,75.5780297 49.6292146,75.7109265 C49.1876539,75.807735 48.7758356,75.9715647 48.4183544,76.1938232 L47.2063503,75.3076533 C47.3876648,74.9450512 47.2624034,74.5343312 46.890623,74.2719745 C46.3890054,73.8996342 45.5905355,73.9110909 45.106649,74.2971791 C44.6233345,74.6838402 44.6387777,75.298488 45.1398233,75.6702555 L45.1529786,75.6799936 C45.5138916,75.9520885 46.0532591,76.0265565 46.5148388,75.8684551 L47.7274149,76.754625 C47.4906193,77.0032337 47.3115928,77.2810568 47.1983428,77.5760649 C46.2974902,77.6889127 43.3381183,78.0641171 41.6119133,78.2806473 C41.5478526,78.1975868 41.4694928,78.1214002 41.3791215,78.0538061 C40.8157312,77.6413677 39.9240302,77.6585526 39.3886665,78.0921858 C38.8515868,78.5263919 38.8738936,79.2126437 39.4384278,79.6250821 C40.0012462,80.0375206 40.8929472,80.0203357 41.4288829,79.5867024 C41.6039057,79.4434946 41.7240193,79.2670626 41.7777845,79.0751642 L42.1415573,79.0293377 L47.0376192,78.3178813 C47.0324715,78.5424312 47.0662177,78.7664082 47.1377139,78.9846568 C47.2755587,79.4331837 47.5781307,79.8410395 48.009968,80.1606793 L48.1026271,80.2282734 C48.4017673,80.4499591 48.748953,80.6292552 49.128741,80.7575694 C49.451332,80.8646889 49.7939419,80.9305644 50.1439875,80.9511864 L50.1931769,82.4147701 C49.6555252,82.6192708 49.4353168,83.1204981 49.7012828,83.5340823 C49.9666768,83.9482392 50.6181505,84.1177973 51.1558021,83.9132965 C51.6934538,83.7087958 51.9136622,83.2075685 51.6476962,82.7934115 C51.5418818,82.6272905 51.367431,82.4943936 51.1512264,82.4130516 L51.100893,80.9042142 C51.329681,80.8652617 51.5527492,80.8096971 51.7666659,80.7369475 C52.2242418,80.5880114 52.6360601,80.368617 52.9769541,80.0913667 L53.0433026,80.0369478 C53.8680831,79.3713179 54.1883862,78.4255736 53.8909619,77.5336754 C53.7468255,77.0799931 53.4368179,76.666409 52.997545,76.3421865 L52.9746662,76.3261472 C52.543401,76.0053618 52.0080372,75.7790934 51.4251999,75.6708283" id="Shape" fill="#FF8F52" fill-rule="nonzero"></path>
            <line x1="32" y1="80" x2="30" y2="79" id="Path" fill="#FFFFFF" fill-rule="nonzero"></line>
            <path d="M31.7291398,80 C31.6837369,80 31.637253,79.992135 31.5950931,79.9740454 L30.136795,79.3676521 C30.0070724,79.3137767 29.9616695,79.193835 30.035179,79.0994548 C30.11031,79.004288 30.2757063,78.9720414 30.4048884,79.02631 L31.863727,79.6327034 C31.9929091,79.6865788 32.038312,79.8065204 31.9648025,79.9009007 C31.914535,79.9646074 31.8226482,80 31.7291398,80" id="Path" fill="#33475C" fill-rule="nonzero"></path>
            <line x1="34" y1="81" x2="32" y2="80" id="Path" fill="#FFFFFF" fill-rule="nonzero"></line>
            <path d="M33.8647729,80.9874835 C33.817145,80.9874835 33.7695171,80.9749637 33.7258114,80.9493551 L32.2129242,80.0718341 C32.0784453,79.9933011 32.0319381,79.8197317 32.1087031,79.6831526 C32.1860284,79.5465734 32.3580493,79.4993398 32.4914075,79.5773037 L34.0037344,80.4553939 C34.1382133,80.5333578 34.1847206,80.7069271 34.1085159,80.8435063 C34.0564053,80.9356972 33.9617098,80.9869144 33.8647729,80.9869144 M29.8421739,76.7421483 L51.6311119,89.3876702 L67.1578175,80.2579232 L45.3688795,67.6129704 L29.8421739,76.7421483 Z M51.6322326,90 C51.5840443,90 51.5369767,89.9874802 51.4932711,89.9624407 L29.1417631,76.9908361 C29.0543519,76.940188 29.0005603,76.8462899 29,76.7444246 C29,76.6425593 29.0532312,76.5486611 29.1400822,76.497444 L45.2271163,67.0381998 C45.3139673,66.9875517 45.4198694,66.9869826 45.5072806,67.0381998 L67.8587886,80.0092353 C67.9456395,80.0604525 67.9994311,80.1537816 68,80.2556469 C68.0005517,80.3580812 67.9467602,80.4519794 67.8604696,80.5026275 L51.7734354,89.9618717 C51.7291694,89.9874802 51.6809812,90 51.6322326,90 L51.6322326,90 Z" id="Shape" fill="#33475C" fill-rule="nonzero"></path>
            <path d="M47.5610696,68.6773572 C47.5610696,69.2092223 51.2544046,70.0395045 50.9860542,70.5041982 C50.1388093,71.9676531 48.0915822,73 45.7011815,73 C42.5524236,73 40,71.208947 40,68.9994494 C40,66.7905024 42.5524236,65 45.7011815,65 C48.850502,65 47.5610696,66.4684102 47.5610696,68.6773572" id="Path" fill="#33475C" fill-rule="nonzero"></path>
            <path d="M51,67 C51,69.208947 48.5378885,71 45.5,71 C42.4626542,71 40,69.208947 40,67 C40,64.791053 42.4626542,63 45.5,63 C48.5378885,63 51,64.791053 51,67" id="Path" fill="#CBD6E3" fill-rule="nonzero"></path>
            <path d="M46,62.5795235 C43.003103,62.5795235 40.5641749,64.3383773 40.5641749,66.5 C40.5641749,68.6616227 43.003103,70.4204765 46,70.4204765 C48.996897,70.4204765 51.4358251,68.6616227 51.4358251,66.5 C51.4358251,64.3383773 48.996897,62.5795235 46,62.5795235 M46,71 C42.6916784,71 40,68.9809401 40,66.5 C40,64.0184804 42.6916784,62 46,62 C49.3083216,62 52,64.0184804 52,66.5 C52,68.9803606 49.3088858,71 46,71" id="Shape" fill="#33475C" fill-rule="nonzero"></path>
            <g id="Group" transform="translate(43.000000, 65.000000)">
                <g transform="translate(2.250000, 1.461250)" id="Clipped">
                    <mask id="mask-6" fill="white">
                        <use xlink:href="#path-5"></use>
                    </mask>
                    <g id="e"></g>
                    <path d="M8.2985625,4.9595 C7.7810625,6.54325 5.6356875,7.22108333 3.5055,6.47325 C1.373625,5.726 0.066375,3.836 0.58275,2.25166667 C1.0996875,0.6685 3.245625,-0.00933333333 5.376375,0.737916667 C7.507125,1.48575 8.8149375,3.37575 8.2985625,4.9595" id="Path" fill="#FFFFFF" fill-rule="nonzero" mask="url(#mask-6)"></path>
                </g>
                <g transform="translate(2.250000, 1.461250)" id="Clipped">
                    <mask id="mask-8" fill="white">
                        <use xlink:href="#path-7"></use>
                    </mask>
                    <g id="g"></g>
                    <path d="M3.6365625,0.7245 C2.3011875,0.7245 1.1840625,1.32125 0.849375,2.34558333 C0.383625,3.77475 1.614375,5.50258333 3.5955,6.19733333 C5.5749375,6.8915 7.565625,6.29533333 8.0319375,4.86616667 C8.4976875,3.437 7.266375,1.70916667 5.286375,1.01441667 C4.7255625,0.817833333 4.163625,0.7245 3.6365625,0.7245 Z M5.2273125,7.0665 C4.6434375,7.0665 4.0280625,6.965 3.4149375,6.74975 C1.1413125,5.95233333 -0.248625,3.89258333 0.3166875,2.15833333 C0.882,0.42525 3.1921875,-0.336 5.466375,0.460833333 C7.74,1.25883333 9.1305,3.31858333 8.5651875,5.05166667 C8.15175,6.31866667 6.8079375,7.06591667 5.2273125,7.06591667 L5.2273125,7.0665 Z" id="Shape" fill="#33475C" fill-rule="nonzero" mask="url(#mask-8)"></path>
                </g>
                <path d="M4.35825,2.54916667 C4.1124375,3.30341667 3.0898125,3.62658333 2.0750625,3.27016667 C1.060875,2.91433333 0.4370625,2.01425 0.6834375,1.26 C0.92925,0.50575 1.951875,0.182583333 2.9660625,0.539 C3.9808125,0.894833333 4.6040625,1.79491667 4.35825,2.54916667" id="Path" fill="#FFFFFF" fill-rule="nonzero"></path>
                <path d="M2.140875,0.684833333 C1.9580625,0.684833333 1.780875,0.7105 1.618875,0.761833333 C1.276875,0.86975 1.0389375,1.07975 0.9495,1.35333333 C0.757125,1.94366667 1.314,2.695 2.165625,2.99366667 C2.601,3.14708333 3.047625,3.16575 3.4228125,3.04616667 C3.765375,2.93883333 4.0033125,2.72883333 4.0921875,2.45583333 C4.285125,1.86491667 3.7276875,1.11358333 2.876625,0.814916667 C2.629125,0.728583333 2.379375,0.684833333 2.140875,0.684833333 M2.901375,3.7065 C2.601,3.7065 2.2899375,3.65341667 1.985625,3.54666667 C0.8251875,3.1395 0.1215,2.07083333 0.417375,1.16608333 C0.565875,0.709916667 0.9343125,0.368083333 1.454625,0.203583333 C1.9423125,0.0495833333 2.511,0.0705833333 3.056625,0.261916667 C4.2165,0.669666667 4.9201875,1.73716667 4.624875,2.64191667 C4.4758125,3.09866667 4.107375,3.4405 3.5870625,3.60441667 C3.371625,3.67325 3.139875,3.70708333 2.9008125,3.70708333" id="Shape" fill="#33475C" fill-rule="nonzero"></path>
            </g>
            <g id="Group" transform="translate(39.000000, 29.000000)" fill-rule="nonzero">
                <path d="M6.38116216,34.4670534 C3.36624324,34.4670534 0.912648649,36.1814809 0.912648649,38.2885038 C0.912648649,40.3955267 3.36624324,42.1099542 6.38116216,42.1099542 C9.39608108,42.1099542 11.8496757,40.3955267 11.8496757,38.2885038 C11.8496757,36.1814809 9.39608108,34.4670534 6.38116216,34.4670534 M6.38116216,42.6748397 C3.05294595,42.6748397 0.345081081,40.7067786 0.345081081,38.2885038 C0.345081081,35.8696641 3.05294595,33.9021679 6.38116216,33.9021679 C9.70937838,33.9021679 12.4172432,35.8696641 12.4172432,38.2885038 C12.4172432,40.7062137 9.70994595,42.6748397 6.38116216,42.6748397" id="Shape" fill="#33475C"></path>
                <path d="M42.6850541,17.6504122 C42.2605135,18.2621832 41.5294865,18.5807786 40.6838108,18.5220305 L40.5487297,18.5084733 C40.071973,18.4632824 39.5815946,18.2994656 39.1235676,18.0328397 C38.5934595,17.7334504 38.1172703,17.3165649 37.7426757,16.8245496 C37.3538919,16.3652977 37.0945135,15.8286565 37.0014324,15.2937099 L36.9758919,15.1321527 C36.8879189,14.612458 36.9316216,14.1130992 37.1041622,13.6815267 C37.2863514,13.2070229 37.6075946,12.8229008 38.0355405,12.5664427 C38.4453243,12.3043359 38.9618108,12.1958779 39.5168919,12.2563206 L39.5696757,12.2619695 C40.0753784,12.3094198 40.5941351,12.4794504 41.0822432,12.7568092 C41.5856757,13.0516794 42.0357568,13.453313 42.3921892,13.9244275 C42.7463514,14.3961069 43.0017568,14.918626 43.1368378,15.4473588 C43.1623784,15.5580763 43.1822432,15.6552366 43.1987027,15.7636947 C43.3054054,16.5014351 43.1215135,17.1781679 42.6850541,17.6504122 M44.7731351,13.1013893 C44.1192973,12.1665038 43.2685135,11.3570229 42.3053514,10.7537252 C41.5822703,10.2916489 40.8081081,9.95949618 40.0294054,9.77816794 L39.5895405,6.97294656 C40.32,6.73117557 40.7036757,6.01490076 40.5561081,5.16700763 C40.3807297,3.99882443 39.2915676,2.94531298 38.1235135,2.81425954 C36.9548919,2.68433588 36.1500811,3.5248855 36.3254595,4.69363359 L36.33,4.72300763 C36.4497568,5.56920611 37.0752162,6.3911145 37.9078378,6.7961374 L38.3477027,9.60361832 C37.6967027,9.61830534 37.0831622,9.75048855 36.5343243,9.99338931 C35.1721622,8.93874809 30.6906486,5.4799542 28.0781351,3.45992366 C28.1048108,3.26334351 28.1025405,3.05716031 28.0713243,2.84589313 C27.8675676,1.54100763 26.6455946,0.371694656 25.343027,0.23329771 C24.0398919,0.0954656489 23.1488108,1.04221374 23.3525676,2.34766412 C23.5568919,3.65254962 24.7771622,4.8218626 26.0797297,4.96025954 C26.5065405,5.00319084 26.9061081,4.92806107 27.2347297,4.74277863 L27.7864054,5.16870229 L35.322,10.7667176 C35.0143784,11.0610229 34.758973,11.4061679 34.562027,11.7925496 C34.146,12.5760458 34.0052432,13.5267481 34.1573514,14.5311145 L34.1902703,14.745771 C34.2947027,15.441145 34.5211622,16.1449924 34.8588649,16.8251145 C35.1483243,17.3996031 35.5217838,17.9458473 35.9644865,18.4423817 L34.065973,20.4629771 C33.0693243,20.0167176 32.0999189,20.3918015 31.9018378,21.3001374 C31.7031892,22.2084733 32.3513514,23.3060458 33.3485676,23.7523053 C34.3457838,24.1985649 35.3146216,23.8234809 35.5127027,22.915145 C35.5921622,22.5519237 35.5371081,22.1395573 35.3560541,21.7430076 L37.3135946,19.6597099 C37.6728649,19.9139084 38.048027,20.1376031 38.4334054,20.3274046 C39.2467297,20.739771 40.0958108,20.9967939 40.9261622,21.0832214 L41.0879189,21.1001679 C43.0902973,21.3148244 44.7907297,20.4787939 45.5864595,18.8914656 C46.0036216,18.090458 46.1415405,17.123374 45.9843243,16.1037557 L45.9763784,16.0506565 C45.8265405,15.0451603 45.4116486,14.0266718 44.7731351,13.1019542" id="Shape" fill="#FF8F52"></path>
                <path d="M62.4591081,36.3492519 C62.3024595,36.3492519 62.1753243,36.2227176 62.1753243,36.0668092 L62.1753243,13.468 C62.1753243,13.3120916 62.3024595,13.1855573 62.4591081,13.1855573 C62.6157568,13.1855573 62.7428919,13.3120916 62.7428919,13.468 L62.7428919,36.0668092 C62.7428919,36.2227176 62.6157568,36.3492519 62.4591081,36.3492519 M51.5118649,61.0963206 C51.3472703,61.0963206 51.1826757,61.0680763 51.0248919,61.010458 C50.6037568,60.857374 50.2802432,60.5150534 50.151973,60.0874351 L49.7756757,58.8322595 L49.5021081,58.3673588 L48.9765405,58.0261679 C48.5650541,57.7589771 48.3215676,57.2985954 48.3329189,56.8094046 C48.3442703,56.3202137 48.6104595,55.8716947 49.0344324,55.6242748 L51.2280811,54.345374 C51.6571622,54.0956947 52.1861351,54.0855267 52.6242973,54.3239084 L53.2752973,54.6775267 C53.4773514,54.7865496 53.6498919,54.9430229 53.777027,55.1333893 L54.6238378,56.3976031 C54.7401892,56.5715878 54.8168108,56.7687328 54.8474595,56.9760458 L55.0148919,58.109771 C55.0943514,58.6537557 54.8502973,59.1943511 54.3882973,59.496 L52.2894324,60.8652824 C52.0555946,61.0178015 51.7842973,61.0963206 51.5118649,61.0963206" id="Shape" fill="#33475C"></path>
                <path d="M50.0974865,61.8617405 C49.9141622,61.8617405 49.7302703,61.8267176 49.556027,61.7549771 C49.161,61.5922901 48.8596216,61.2612672 48.7375946,60.852855 L48.3612973,59.5976794 L48.0877297,59.1322137 L47.5621622,58.7915878 C47.1438649,58.5204427 46.8992432,58.0493282 46.9191081,57.552229 C46.9395405,57.0556947 47.2199189,56.6054809 47.6592162,56.3676641 L49.0735946,55.6022443 C49.5310541,55.3542595 50.0895405,55.376855 50.5265676,55.6598626 L51.3325135,56.1829466 C51.5322973,56.3128702 51.6957568,56.4908092 51.8092703,56.7003817 L52.496027,57.9804122 C52.5499459,58.0803969 52.5913784,58.1860305 52.6191892,58.2956183 L52.8859459,59.333313 C53.0477027,59.9603359 52.7605135,60.6156031 52.1901081,60.9245954 L50.7751622,61.6900153 C50.5645946,61.8041221 50.3313243,61.8617405 50.0974865,61.8617405" id="Path" fill="#33475C"></path>
                <path d="M32.4682703,68.3641374 L32.7083514,68.7714198 L32.7276486,68.8058779 L48.4583514,59.7959542 L48.216,59.3451756 L32.4682703,68.3641374 L32.4682703,68.3641374 Z M31.9092162,72.3166412 C31.731,72.3166412 31.5527838,72.2827481 31.3836486,72.2160916 C30.9806757,72.056229 30.6730541,71.7212519 30.5493243,71.3077557 L30.173027,70.0520153 L29.8994595,69.5876794 L29.3738919,69.2464885 C28.9601351,68.9776031 28.7166486,68.5149618 28.7302703,68.0240763 C28.7438919,67.532626 29.0129189,67.0841069 29.4408649,66.8389466 L47.6682973,56.3998626 C48.1314324,56.1349313 48.7041081,56.1501832 49.1519189,56.4410992 L49.9567297,56.9641832 C50.1565135,57.093542 50.3205405,57.2714809 50.4334865,57.4810534 L51.1208108,58.761084 C51.1741622,58.8610687 51.2155946,58.9672672 51.243973,59.0774198 L51.5107297,60.1145496 C51.6685135,60.7285802 51.3960811,61.3725496 50.8438378,61.6888855 L32.616973,72.1285344 C32.399027,72.2528092 32.1544054,72.3166412 31.9092162,72.3166412 L31.9092162,72.3166412 Z" id="Shape" fill="#33475C"></path>
                <path d="M30.2632703,69.3470382 L29.6077297,70.2627176 L30.7661351,70.1248855 L52.5760541,57.7126565 C52.5141892,57.4030992 52.2865946,57.009374 52.0482162,56.7992366 L30.5402432,69.1578015 C30.4562432,69.2312366 30.3631622,69.2956336 30.2632703,69.3470382 M26.5894054,73.4543206 C26.0927838,73.4543206 25.6268108,73.1944733 25.3697027,72.761771 C25.0830811,72.2804885 25.1086216,71.6771908 25.434973,71.2218931 L28.0911892,67.5151145 C28.1388649,67.4473282 28.1933514,67.3851908 28.2518108,67.3270076 C28.4095946,67.1552824 28.5934865,67.0134962 28.7972432,66.9039084 C28.8312973,66.881313 28.8659189,66.8587176 28.9022432,66.8378168 L50.900027,54.197374 C50.9323784,54.1776031 50.9647297,54.1589618 50.9970811,54.1414504 L51.0402162,54.1171603 C51.194027,54.0290382 51.3614595,53.9714198 51.534,53.9454351 C52.1163243,53.8115573 52.7457568,53.9188855 53.3388649,54.2595115 C54.5307568,54.9435878 55.4297838,56.4930687 55.4297838,57.8634809 C55.4297838,58.736229 55.0761892,59.4609771 54.4512973,59.8846412 C54.4024865,59.9219237 54.3497027,59.9563817 54.2952162,59.9880153 L32.0851622,72.6267634 L32.0681351,72.6369313 C32.0176216,72.6651756 31.965973,72.6905954 31.9126216,72.712626 C31.7894595,72.7725038 31.6662973,72.8188244 31.5408649,72.8527176 C31.4574324,72.8792672 31.3705946,72.8979084 31.2814865,72.9092061 L26.757973,73.4441527 C26.7017838,73.4509313 26.6455946,73.4543206 26.5894054,73.4543206" id="Shape" fill="#33475C"></path>
                <path d="M29.9823243,69.7396336 L29.6077297,70.2627176 L30.2388649,70.1875878 C30.177,70.0322443 30.0856216,69.8729466 29.9823243,69.7396336 M26.5894054,73.4543206 C26.0927838,73.4543206 25.6268108,73.1944733 25.3697027,72.761771 C25.0830811,72.2810534 25.1086216,71.6771908 25.434973,71.222458 L28.0911892,67.5151145 C28.1388649,67.4478931 28.1933514,67.3851908 28.2506757,67.3281374 C28.9487838,66.5683664 30.0907297,66.4350534 31.1083784,67.019145 C32.2804054,67.6924885 33.162973,69.214855 33.162973,70.5609771 C33.162973,71.720687 32.508,72.6216794 31.5130541,72.8611908 C31.4381351,72.8832214 31.3609459,72.8990382 31.2814865,72.9086412 L26.757973,73.4441527 C26.7017838,73.4509313 26.6455946,73.4543206 26.5894054,73.4543206" id="Shape" fill="#33475C"></path>
                <path d="M26.589973,73.4543206 C26.0893784,73.4543206 25.6205676,73.1905191 25.364027,72.7527328 C25.0802432,72.2669313 25.112027,71.661374 25.4451892,71.2083359 L26.7301622,69.4600153 C26.8692162,69.2713435 27.0536757,69.1199542 27.2659459,69.0194046 C27.8062703,68.7635115 28.4362703,68.8007939 28.9958919,69.1222137 C29.7768649,69.5707328 30.3222973,70.5107023 30.3222973,71.4077405 C30.3222973,72.076 30.0214865,72.6504885 29.4976216,72.9849008 C29.316,73.1007023 29.1094054,73.1735725 28.8954324,73.1984275 L26.7534324,73.4447176 C26.6989459,73.4514962 26.6444595,73.4543206 26.589973,73.4543206 M49.647973,62.4288855 C49.1899459,62.4288855 48.7427027,62.2085802 48.4702703,61.8058168 C48.111,61.2748244 48.1603784,60.5845344 48.5571081,60.1111603 C48.5134054,59.7479389 48.2296216,59.2598779 47.9498108,59.0536947 C47.3447838,59.170626 46.7068378,58.8802748 46.413973,58.306916 C46.0717297,57.6375267 46.3163514,56.8195725 46.9690541,56.4439237 L48.3312162,55.6609924 L48.3976216,55.6254046 C49.0900541,55.2746107 49.9277838,55.3260153 50.6957027,55.7677557 C51.8892973,56.4535267 52.7894595,58.0047023 52.7894595,59.377374 C52.7894595,60.2518168 52.4205405,60.995771 51.7791892,61.4194351 C51.7547838,61.4352519 51.7298108,61.4505038 51.7048378,61.464626 L50.3562973,62.2396489 C50.1332432,62.3678779 49.8891892,62.4288855 49.647973,62.4288855" id="Shape" fill="#33475C"></path>
                <path d="M29.4698108,72.8289924 C29.0952162,72.8289924 28.7331081,72.6809924 28.4652162,72.4143664 C28.1933514,72.1426565 28.0452162,71.774916 28.0508919,71.3958779 C28.0406757,71.3094504 27.9544054,71.1580611 27.8823243,71.0953588 L27.8528108,71.0801069 C27.4924054,70.8891756 27.2324595,70.5525038 27.1393784,70.157084 C27.0457297,69.7616641 27.1285946,69.3453435 27.3652703,69.0143206 L28.2858649,67.7292061 C28.3153784,67.6874046 28.3482973,67.6472977 28.3823514,67.6088855 C28.9771622,66.8575878 30.0112703,66.713542 30.9687568,67.2643053 C32.0573514,67.8907634 32.8791892,69.3080611 32.8791892,70.5609771 C32.8791892,71.6212672 32.2684865,72.4341374 31.3524324,72.6069924 C31.3002162,72.6182901 31.2485676,72.6278931 31.1969189,72.6341069 L29.6372432,72.8188244 C29.5816216,72.8256031 29.5248649,72.8289924 29.4698108,72.8289924 L29.4698108,72.8289924 Z" id="Shape" fill="#33475C"></path>
                <polygon id="Path" fill="#FF8F52" points="51.9449189 55.5638321 49.7512703 56.8432977 50.5572162 57.3658168 51.0861892 58.2651145 51.5118649 59.6841069 53.6112973 58.3148244 53.4432973 57.1810992 52.5959189 55.9168855"></polygon>
                <polygon id="Path" fill="#D4E7F8" points="49.7512703 56.8427328 48.3368919 57.6081527 49.1428378 58.1318015 49.6718108 59.0316641 50.0974865 60.4495267 51.5118649 59.6841069 51.2451081 58.6464122 50.5572162 57.3663817"></polygon>
                <polygon id="Path" fill="#F7C364" points="48.3760541 57.6239695 30.1486216 68.0630534 30.9545676 68.5861374 31.4835405 69.4854351 31.9092162 70.9044275 50.1360811 60.4647786 49.8693243 59.427084 49.1814324 58.1470534"></polygon>
                <path d="M29.6588108,68.731313 L27.7971892,71.3297863 L30.9738649,70.9541374 C30.9908919,70.9496183 31.0079189,70.9456641 31.0260811,70.9434046 C31.0521892,70.9292824 31.0788649,70.916855 31.1066757,70.906687 L53.238973,58.3114351 C53.2633784,58.2927939 53.2894865,58.2752824 53.3178649,58.2605954 C53.3802973,58.2267023 53.4427297,58.0911298 53.4427297,57.862916 C53.4427297,57.1912672 52.9307838,56.3072214 52.3461892,55.9716794 C52.1872703,55.8812977 52.0425405,55.8462748 51.9568378,55.8790382 C51.9420811,55.884687 51.9267568,55.8903359 51.9114324,55.8937252 L51.9142703,55.8976794 L30.0254595,68.474855 C29.9562162,68.5511145 29.8682432,68.6092977 29.7666486,68.6352824 C29.739973,68.6420611 29.7223784,68.6533588 29.7064865,68.6753893 C29.6917297,68.6951603 29.6758378,68.7138015 29.6588108,68.7318779 M26.5905405,72.6069924 C26.3913243,72.6069924 26.2045946,72.5024885 26.1018649,72.3301985 C25.9872162,72.1381374 25.998,71.8958015 26.127973,71.7144733 L28.7836216,68.0071298 C28.8074595,67.9738015 28.8341351,67.9438626 28.8642162,67.917313 C28.9731892,67.7941679 29.1037297,67.6958779 29.2501622,67.6252672 C29.2745676,67.6054962 29.3001081,67.5874198 29.3279189,67.5710382 L51.3467027,54.9187328 C51.3569189,54.9113893 51.3904054,54.8927481 51.4244595,54.8752366 L51.4641892,54.8515115 C51.5351351,54.8108397 51.6128919,54.7865496 51.6912162,54.7792061 C52.0703514,54.6814809 52.4988649,54.7566107 52.9137568,54.9938626 C53.8468378,55.529374 54.5784324,56.7901985 54.5784324,57.8634809 C54.5784324,58.454916 54.3514054,58.9345038 53.9524054,59.1977405 C53.928,59.2175115 53.9013243,59.2361527 53.8723784,59.2525344 L31.6572162,71.8946718 L31.647,71.9003206 C31.6203243,71.9155725 31.5919459,71.9285649 31.563,71.9398626 C31.4744595,71.9850534 31.3881892,72.0172519 31.3007838,72.0392824 C31.2621892,72.0528397 31.2224595,72.0618779 31.1815946,72.0675267 L26.6575135,72.6030382 C26.6348108,72.6052977 26.6121081,72.6064275 26.5905405,72.6064275" id="Shape" fill="#33475C"></path>
                <path d="M31.7440541,70.5609771 C31.7440541,69.7108244 31.1395946,68.6674809 30.4000541,68.242687 C29.9108108,67.961374 29.4845676,68.0240763 29.2495946,68.3409771 L29.2461892,68.3353282 L26.589973,72.0421069 L31.1146216,71.5065954 L31.1123514,71.5020763 C31.4903514,71.4450229 31.7446216,71.1100458 31.7446216,70.5609771" id="Path" fill="#FFFFFF"></path>
                <path d="M29.442,68.5482901 L27.1938649,71.686229 L31.0289189,71.2320611 C31.041973,71.2281069 31.0555946,71.2247176 31.0692162,71.2230229 C31.4222432,71.1693588 31.4608378,70.7423053 31.4608378,70.5609771 C31.4608378,69.811374 30.9097297,68.8618015 30.2575946,68.4872824 C30.0964054,68.3940763 29.6985405,68.2116183 29.4771892,68.5087481 C29.466973,68.5228702 29.4544865,68.5364275 29.442,68.5482901 M26.5905405,72.3245496 C26.4912162,72.3245496 26.3975676,72.2725802 26.3464865,72.1861527 C26.2885946,72.0901221 26.2937027,71.9692366 26.358973,71.8782901 L29.0146216,68.1715115 C29.0288108,68.1511756 29.0464054,68.1330992 29.0651351,68.1178473 C29.4034054,67.7207328 29.9738108,67.6715878 30.5413784,67.9975267 C31.3751351,68.4771145 32.0284054,69.6029313 32.0284054,70.5609771 C32.0284054,71.207771 31.7179459,71.6653282 31.2133784,71.7709618 C31.1923784,71.7788702 31.1702432,71.7845191 31.1475405,71.7867786 L26.6234595,72.322855 C26.6126757,72.3239847 26.6013243,72.3245496 26.5905405,72.3245496" id="Shape" fill="#33475C"></path>
                <path d="M28.287,70.3451908 C28.1280811,70.2536794 27.9839189,70.2435115 27.8743784,70.294916 L27.6887838,70.546855 L26.5905405,72.041542 L28.4532973,71.8274504 L28.7325405,71.7952519 C28.8375405,71.7285954 28.9028108,71.5952824 28.9028108,71.4071756 C28.9028108,71.0179695 28.6264054,70.5400763 28.287,70.3451908" id="Path" fill="#33475C"></path>
                <path d="M28.1138919,70.9253282 L27.8153514,71.3320458 L28.3108378,71.2755573 C28.2745135,71.148458 28.1995946,71.0174046 28.1138919,70.9253282 L28.1138919,70.9253282 Z M26.5905405,72.6064275 C26.3896216,72.6064275 26.2023243,72.5007939 26.1001622,72.3262443 C25.9860811,72.1319237 25.9991351,71.8895878 26.1319459,71.7082595 L27.4169189,69.9605038 C27.4731081,69.8848092 27.5463243,69.8249313 27.6314595,69.7842595 C27.9146757,69.6492519 28.2569189,69.6769313 28.5707838,69.856 C29.0838649,70.1503053 29.4709459,70.8174351 29.4709459,71.4071756 C29.4709459,71.7811298 29.3137297,72.0963359 29.0384595,72.2714504 C28.9658108,72.3172061 28.8835135,72.3465802 28.7978108,72.3561832 L26.6558108,72.6024733 C26.6331081,72.6052977 26.6121081,72.6064275 26.5905405,72.6064275 L26.5905405,72.6064275 Z M48.5922973,57.4674962 C48.6394054,57.4900916 48.6870811,57.5143817 48.7347568,57.5420611 C49.5934865,58.0352061 50.2660541,59.194916 50.2660541,60.1823359 C50.2660541,60.2348702 50.2637838,60.2868397 50.2603784,60.3376794 L50.8529189,59.9970534 C50.9982162,59.9010229 51.0867568,59.6773282 51.0867568,59.3768092 C51.0867568,58.602916 50.5174865,57.6217099 49.8437838,57.2347634 C49.5844054,57.0856336 49.3454595,57.0483511 49.1751892,57.133084 L48.5922973,57.4674962 L48.5922973,57.4674962 Z M49.6462703,61.2985496 C49.5554595,61.2985496 49.4657838,61.2544885 49.4107297,61.1742748 C49.3278649,61.0505649 49.3545405,60.8844885 49.472027,60.793542 C49.6184595,60.6805649 49.6990541,60.4625191 49.6990541,60.1823359 C49.6990541,59.4050534 49.1269459,58.4198931 48.450973,58.0312519 C48.1995405,57.8872061 47.9657027,57.8487939 47.7931622,57.9250534 C47.6580811,57.9860611 47.4940541,57.9290076 47.4253784,57.7951298 C47.3572703,57.660687 47.4055135,57.4968702 47.5366216,57.4223053 L48.8987838,56.6388092 L48.9118378,56.6320305 C49.2608919,56.4552214 49.6928108,56.496458 50.1275676,56.7455725 C50.9834595,57.2375878 51.6543243,58.3933435 51.6543243,59.3768092 C51.6543243,59.8727786 51.4755405,60.2636794 51.152027,60.4772061 L49.7881622,61.2607023 C49.7438919,61.2861221 49.6945135,61.2985496 49.6462703,61.2985496 L49.6462703,61.2985496 Z" id="Shape" fill="#33475C"></path>
                <path d="M31.0697838,71.222458 C31.0555946,71.2247176 31.041973,71.227542 31.0289189,71.2320611 L29.4698108,71.4167786 L29.4709459,71.4077405 C29.4709459,70.818 29.0838649,70.1514351 28.5713514,69.8565649 C28.5543243,69.8469618 28.5372973,69.8430076 28.5208378,69.8339695 L29.4414324,68.548855 C29.4544865,68.5369924 29.4664054,68.5234351 29.4771892,68.5087481 C29.6985405,68.2110534 30.0964054,68.3940763 30.2575946,68.4872824 C30.9102973,68.8612366 31.4608378,69.8108092 31.4608378,70.5604122 C31.4608378,70.7411756 31.4222432,71.1693588 31.0697838,71.2218931" id="Path" fill="#FEF9F0"></path>
            </g>
        </g>
    </g>
</svg>